<svg xmlns="http://www.w3.org/2000/svg" version="1.1" xmlns:xlink="http://www.w3.org/1999/xlink" xmlns:svgjs="http://svgjs.dev/svgjs" width="1000" height="1000" viewBox="0 0 1000 1000"><rect width="1000" height="1000" fill="#ffffff"></rect><g transform="matrix(0.7,0,0,0.7,149.57575831026367,464.42804787590916)"><svg viewBox="0 0 396 40" data-background-color="#d2d6dc" preserveAspectRatio="xMidYMid meet" height="101" width="1000" xmlns="http://www.w3.org/2000/svg" xmlns:xlink="http://www.w3.org/1999/xlink"><g id="tight-bounds" transform="matrix(1,0,0,1,0.24000041552056928,0.12557413942286644)"><svg viewBox="0 0 395.52 39.7488511110228" height="39.7488511110228" width="395.52"><g><svg viewBox="0 0 420.30047992930037 42.23923239937598" height="39.7488511110228" width="395.52"><g transform="matrix(1,0,0,1,24.78047992930037,5.837694202808114)"><svg viewBox="0 0 395.52 30.56384399375975" height="30.56384399375975" width="395.52"><g id="textblocktransform"><svg viewBox="0 0 395.52 30.56384399375975" height="30.56384399375975" width="395.52" id="textblock"><g><svg viewBox="0 0 395.52 30.56384399375975" height="30.56384399375975" width="395.52"><g transform="matrix(1,0,0,1,0,0)"><svg width="395.52" viewBox="2.9000000953674316 -36.150001525878906 480.7300109863281 37.150001525878906" height="30.56384399375975" data-palette-color="#6b7280"><path d="M26-0.1L26-0.1Q22.65 0.2 16.4 0.2 10.15 0.2 7.88 0.03 5.6-0.15 4.45-0.8 3.3-1.45 3.2-2.85L3.2-2.85Q2.9-8.25 2.9-15.18 2.9-22.1 3.1-29.85L3.1-29.85Q3.2-34.65 7.55-34.95L7.55-34.95Q10.6-35.15 16.9-35.15 23.2-35.15 26.78-34.98 30.35-34.8 33.68-33.33 37-31.85 39-29.5L39-29.5Q43.15-24.65 43.15-18.25L43.15-18.25Q43.15-11.5 38.8-6.2L38.8-6.2Q36.7-3.65 33.38-2 30.05-0.35 26-0.1ZM23.75-24.2L23.75-24.2 23.75-12.1Q23.75-11.7 24.05-11.35 24.35-11 24.85-11L24.85-11Q28.05-11 29.78-13.2 31.5-15.4 31.5-18.4 31.5-21.4 29.93-23.63 28.35-25.85 25.7-25.85L25.7-25.85Q25.05-25.85 24.7-25.8L24.7-25.8Q23.75-25.55 23.75-24.2ZM51.65 0Q50.25 0 49.27-0.93 48.3-1.85 48.02-3.98 47.75-6.1 47.75-16.73 47.75-27.35 48.1-30.6L48.1-30.6Q48.5-34.8 51.65-34.9L51.65-34.9Q55.25-35 81.5-35L81.5-35Q84.45-35 84.45-31.25L84.45-31.25Q84.45-28.3 81.85-28.3L81.85-28.3 70.85-28.3Q69.8-28.3 69.17-27.6 68.55-26.9 68.55-25.8L68.55-25.8 68.55-22.2Q68.55-20.7 69.9-20.7L69.9-20.7 79-20.7Q79.8-20.7 80.22-20.55 80.65-20.4 81-19.68 81.35-18.95 81.35-17.3 81.35-15.65 80.77-15.1 80.2-14.55 78.9-14.55L78.9-14.55 70.75-14.55Q69.5-14.55 69.02-13.93 68.55-13.3 68.55-12L68.55-12 68.55-9.55Q68.55-7.4 70.6-7.4L70.6-7.4 83.05-7.4Q83.95-7.4 84.65-6.88 85.35-6.35 85.35-4.58 85.35-2.8 84.5-1.4 83.65 0 82.5 0L82.5 0 51.65 0ZM110.75-24.55L110.75-24.55 110.85-15.3Q110.85-14.35 111.9-14.35L111.9-14.35Q115-14.35 116.77-16.07 118.55-17.8 118.55-20.15 118.55-22.5 116.87-24.2 115.2-25.9 111.95-25.9L111.95-25.9Q110.75-25.9 110.75-24.55ZM123.85-9.6L123.85-9.6Q124.8-8.6 130.6-2.05L130.6-2.05Q130.95-1.6 130.95-1.25L130.95-1.25Q130.95 0.05 129.8 0.05L129.8 0.05Q127.15 0.1 124.47 0.1 121.8 0.1 119.15 0.05L119.15 0.05Q117.7 0.05 116.5-1.1L116.5-1.1 112.2-7.6Q111.95-7.9 111.6-8L111.6-8Q110.8-8.3 110.8-7.35L110.8-7.35 110.8-2.25Q110.8-0.1 107.97 0.05 105.15 0.2 101.8 0.2 98.45 0.2 93.7-0.05L93.7-0.05Q92.25-0.15 91.37-1.05 90.5-1.95 90.35-3.1L90.35-3.1Q89.95-7.5 89.95-16.93 89.95-26.35 90.25-30.65 90.55-34.95 94.6-35L94.6-35Q98.4-35.05 104.95-35.05 111.5-35.05 115.8-34.95L115.8-34.95Q122-34.85 125.95-30.35 129.9-25.85 129.9-20.2L129.9-20.2Q129.9-16.9 128.37-14.1 126.85-11.3 123.85-9.6ZM153.39-32.4Q155.24-30.1 157.64-26.48 160.04-22.85 160.99-21.65 161.94-20.45 162.52-20.45 163.09-20.45 163.54-21.1 163.99-21.75 166.84-26.1 169.69-30.45 171.54-32.73 173.39-35 174.49-35.05 175.59-35.1 177.34-35.1 179.09-35.1 181.44-35 183.79-34.9 184.57-33.77 185.34-32.65 185.49-30.6L185.49-30.6Q185.79-25.35 185.79-16.68 185.79-8 185.34-3L185.34-3Q185.24-1.8 184.44-0.85 183.64 0.1 182.24 0.1L182.24 0.1Q179.19 0.15 175.47 0.15 171.74 0.15 169.54 0L169.54 0Q168.74-0.05 168.12-0.63 167.49-1.2 167.44-2.15L167.44-2.15 167.14-10.4Q167.09-11.6 166.62-11.75 166.14-11.9 165.74-11.1L165.74-11.1Q163.09-6.4 159.14-0.6L159.14-0.6Q158.19 0.85 156.64 0.85 155.09 0.85 154.09-0.6L154.09-0.6Q152.34-3.1 148.14-11.2L148.14-11.2Q147.89-11.7 147.57-11.8 147.24-11.9 146.99-11.55 146.74-11.2 146.74-10.4L146.74-10.4 146.49-2.15Q146.44-1.2 145.64-0.63 144.84-0.05 143.79 0L143.79 0 138.84 0Q137.49-0.05 136.67-0.95 135.84-1.85 135.69-3L135.69-3Q135.29-7.45 135.29-16.82 135.29-26.2 135.54-30.6L135.54-30.6Q135.69-32.7 136.49-33.85 137.29-35 139.34-35L139.34-35Q149.84-35 150.69-34.85 151.54-34.7 153.39-32.4ZM223.89-32.65L223.89-32.65 240.24-5Q241.24-3.35 241.24-2.23 241.24-1.1 240.34-0.55 239.44 0 238.24 0L238.24 0 222.14 0Q219.69 0 218.99-0.9L218.99-0.9Q218.79-1.2 218.44-1.95L218.44-1.95 216.99-5.05Q216.34-6.5 213.94-6.7L213.94-6.7 204.49-6.7Q203.44-6.7 202.89-6.5 202.34-6.3 201.99-5.6L201.99-5.6 200.04-1.55Q199.54-0.65 198.94-0.33 198.34 0 197.19 0L197.19 0 192.69 0Q190.74 0 190.59-1.4L190.59-1.4Q190.54-1.6 190.54-1.8L190.54-1.8Q190.54-2.95 191.29-4L191.29-4 206.94-31.6Q209.19-35.5 214.24-35.5L214.24-35.5 218.24-35.5Q222.24-35.5 223.89-32.65ZM207.69-19.85L207.69-19.85 205.39-15.3Q205.19-14.85 205.19-14.5L205.19-14.5Q205.19-13.2 206.44-13.2L206.44-13.2 210.99-13.2Q212.04-13.2 212.44-13.73 212.84-14.25 212.84-14.65 212.84-15.05 212.69-15.45L212.69-15.45 210.79-19.75Q210.19-21.05 209.24-21.05 208.29-21.05 207.69-19.85ZM281.49 1Q277.19 1 273.46 0.05 269.74-0.9 268.21-1.85 266.69-2.8 266.19-3.2L266.19-3.2Q264.88-4.25 264.88-6.1L264.88-6.1Q264.88-7.55 265.24-8.85L265.24-8.85Q265.88-11.3 267.59-11.3L267.59-11.3Q268.13-11.25 271.11-10.15 274.09-9.05 275.79-9.05L275.79-9.05Q278.34-9.05 278.34-11.05L278.34-11.05Q278.34-12.25 277.09-13.28 275.84-14.3 274.06-15.25 272.29-16.2 270.49-17.43 268.69-18.65 267.44-20.83 266.19-23 266.19-25.9L266.19-25.9Q266.19-30.7 270.88-33.43 275.59-36.15 283.04-36.15 290.49-36.15 294.86-34.63 299.24-33.1 299.24-30.4L299.24-30.4Q299.24-28.45 298.34-26.98 297.44-25.5 296.44-25.5L296.44-25.5Q296.09-25.5 294.11-26.28 292.13-27.05 290.54-27.05L290.54-27.05Q287.38-27.05 287.38-24.6L287.38-24.6Q287.38-23.4 288.88-22.4 290.38-21.4 292.51-20.48 294.63-19.55 296.79-18.4 298.94-17.25 300.44-15.25 301.94-13.25 301.94-10.4 301.94-7.55 300.11-5.2 298.29-2.85 295.29-1.55L295.29-1.55Q289.34 1 281.49 1L281.49 1ZM334.88-3.05L334.88-3.05Q334.83-1.95 333.93-1.03 333.03-0.1 331.53 0L331.53 0Q328.68 0.2 324.68 0.2 320.68 0.2 317.33 0L317.33 0Q315.83-0.1 314.93-1.03 314.03-1.95 313.98-3.05L313.98-3.05Q313.83-10.65 313.83-16.03 313.83-21.4 313.88-23.9L313.88-23.9Q313.88-25.8 312.18-25.8L312.18-25.8 307.68-25.8Q306.63-25.8 305.98-26.3 305.33-26.8 305.26-28.05 305.18-29.3 305.18-30.65 305.18-32 305.26-32.98 305.33-33.95 306.06-34.48 306.78-35 307.63-35L307.63-35Q314.13-35.1 325.23-35.1 336.33-35.1 341.13-35L341.13-35Q341.98-34.95 342.71-34.45 343.43-33.95 343.51-32.98 343.58-32 343.58-30.7 343.58-29.4 343.53-28.2L343.53-28.2Q343.38-25.95 341.08-25.95L341.08-25.95 336.58-25.95Q334.88-25.95 334.88-24.2L334.88-24.2Q335.03-17.9 335.03-12.8 335.03-7.7 334.88-3.05ZM372.48 1L372.48 1Q366.43 1 361.53-0.58 356.63-2.15 353.58-4.8 350.53-7.45 348.93-10.73 347.33-14 347.33-17.55 347.33-21.1 348.95-24.38 350.58-27.65 353.6-30.3 356.63-32.95 361.53-34.55 366.43-36.15 372.28-36.15 378.13-36.15 382.63-34.7 387.13-33.25 389.88-30.75L389.88-30.75Q395.48-25.65 395.48-18.65L395.48-18.65Q395.48-15.1 393.95-11.7 392.43-8.3 389.61-5.53 386.78-2.75 382.33-0.98 377.88 0.8 372.48 1ZM382.38-18.43Q382.38-20.8 380.68-22.58 378.98-24.35 375.5-24.35 372.03-24.35 369.98-22.5 367.93-20.65 367.93-18 367.93-15.35 370.08-13.75 372.23-12.15 375.25-12.15 378.28-12.15 380.33-14.1 382.38-16.05 382.38-18.43ZM421.08-24.55L421.08-24.55 421.18-15.3Q421.18-14.35 422.23-14.35L422.23-14.35Q425.33-14.35 427.1-16.07 428.88-17.8 428.88-20.15 428.88-22.5 427.2-24.2 425.53-25.9 422.28-25.9L422.28-25.9Q421.08-25.9 421.08-24.55ZM434.18-9.6L434.18-9.6Q435.13-8.6 440.93-2.05L440.93-2.05Q441.28-1.6 441.28-1.25L441.28-1.25Q441.28 0.05 440.13 0.05L440.13 0.05Q437.48 0.1 434.8 0.1 432.13 0.1 429.48 0.05L429.48 0.05Q428.03 0.05 426.83-1.1L426.83-1.1 422.53-7.6Q422.28-7.9 421.93-8L421.93-8Q421.13-8.3 421.13-7.35L421.13-7.35 421.13-2.25Q421.13-0.1 418.3 0.05 415.48 0.2 412.13 0.2 408.78 0.2 404.03-0.05L404.03-0.05Q402.58-0.15 401.7-1.05 400.83-1.95 400.68-3.1L400.68-3.1Q400.28-7.5 400.28-16.93 400.28-26.35 400.58-30.65 400.88-34.95 404.93-35L404.93-35Q408.73-35.05 415.28-35.05 421.83-35.05 426.13-34.95L426.13-34.95Q432.33-34.85 436.28-30.35 440.23-25.85 440.23-20.2L440.23-20.2Q440.23-16.9 438.7-14.1 437.18-11.3 434.18-9.6ZM449.93 0Q448.53 0 447.55-0.93 446.58-1.85 446.3-3.98 446.03-6.1 446.03-16.73 446.03-27.35 446.38-30.6L446.38-30.6Q446.78-34.8 449.93-34.9L449.93-34.9Q453.53-35 479.78-35L479.78-35Q482.73-35 482.73-31.25L482.73-31.25Q482.73-28.3 480.13-28.3L480.13-28.3 469.13-28.3Q468.08-28.3 467.45-27.6 466.83-26.9 466.83-25.8L466.83-25.8 466.83-22.2Q466.83-20.7 468.18-20.7L468.18-20.7 477.28-20.7Q478.08-20.7 478.5-20.55 478.93-20.4 479.28-19.68 479.63-18.95 479.63-17.3 479.63-15.65 479.05-15.1 478.48-14.55 477.18-14.55L477.18-14.55 469.03-14.55Q467.78-14.55 467.3-13.93 466.83-13.3 466.83-12L466.83-12 466.83-9.55Q466.83-7.4 468.88-7.4L468.88-7.4 481.33-7.4Q482.23-7.4 482.93-6.88 483.63-6.35 483.63-4.58 483.63-2.8 482.78-1.4 481.93 0 480.78 0L480.78 0 449.93 0Z" opacity="1" transform="matrix(1,0,0,1,0,0)" fill="#000000" class="undefined-text-0" data-fill-palette-color="primary" id="text-0"></path></svg></g></svg></g></svg></g></svg></g><g><svg viewBox="0 0 17.56508989462954 42.23923239937598" height="42.23923239937598" width="17.56508989462954"><g><svg xmlns:x="http://ns.adobe.com/Extensibility/1.0/" xmlns:i="http://ns.adobe.com/AdobeIllustrator/10.0/" xmlns:graph="http://ns.adobe.com/Graphs/1.0/" xmlns="http://www.w3.org/2000/svg" xmlns:xlink="http://www.w3.org/1999/xlink" version="1.1" x="0" y="0" viewBox="136.9130096435547 25.373001098632812 191.81101989746094 461.25299072265625" enable-background="new 0 0 512 512" xml:space="preserve" height="42.23923239937598" width="17.56508989462954" class="icon-icon-0" data-fill-palette-color="accent" id="icon-0"><g fill="#6b7280" data-fill-palette-color="accent"><path fill="#000000" d="M259.431 420.408h-52.52c-15.132 0-27.401 12.268-27.401 27.4v11.418c0 15.131 12.269 27.4 27.401 27.4h52.52c15.134 0 27.4-12.27 27.4-27.4v-11.418C286.831 432.676 274.564 420.408 259.431 420.408z" data-fill-palette-color="accent"></path><path fill="#000000" d="M328.356 48.207c-2.055-12.97-12.81-22.834-25.781-22.834H163.08c-12.969 0-23.724 9.865-25.78 22.834h-0.387l0.16 1.668 15.619 174.201 13.039 145.25 1.119 12.355c3.791 11.508 16.669 20.049 32.151 20.436 0.365 0.023 0.754 0.023 1.142 0.023h65.946c0.936 0 1.871-0.023 2.808-0.092 14.067-0.775 25.758-8.289 30.097-18.494l1.826-20.348c0-0.822-0.046-1.643-0.138-2.443l12.239-136.679c0.007-0.002 0.015-0.005 0.022-0.009l15.643-174.201 0.138-1.668H328.356zM296.754 48.207c3.791 0 6.851 3.059 6.851 6.85 0 3.79-3.06 6.851-6.851 6.851H168.902c-3.789 0-6.851-3.061-6.851-6.851 0-1.896 0.779-3.608 2.01-4.841 1.233-1.233 2.945-2.009 4.84-2.009H296.754zM259.213 369.236h-52.335c-12.696 0-23.337-6.895-26.396-16.26l-0.89-9.797-0.137-1.529-8.107-90.217h122.94l-7.786 86.885-0.229 2.623-1.21 13.543C281.408 363.047 271.225 369.236 259.213 369.236z" data-fill-palette-color="accent"></path></g></svg></g></svg></g></svg></g><defs></defs></svg><rect width="395.52" height="39.7488511110228" fill="none" stroke="none" visibility="hidden"></rect></g></svg></g></svg>